<svg width="83" height="56" viewBox="0 0 83 56" fill="none" xmlns="http://www.w3.org/2000/svg">
<path d="M49.8298 1.4978H48.896V2.42054H49.8298V1.4978Z" fill="#AFACAD"/>
<path d="M69.2398 12.9702H68.3059V13.893H69.2398V12.9702Z" fill="#AFACAD"/>
<path d="M79.6526 11.9812C79.8821 11.8731 80.0671 11.7185 80.2075 11.5132C80.3479 11.3102 80.446 11.0629 80.5039 10.7759C80.5619 10.4868 80.5909 10.1622 80.5909 9.80242V3.34326H79.657V9.80242C79.657 10.0629 79.6436 10.2837 79.6169 10.4647C79.5902 10.6457 79.5434 10.7914 79.4765 10.904C79.4096 11.0143 79.3205 11.096 79.209 11.1468C79.0954 11.1976 78.9505 11.2218 78.7722 11.2218C78.6875 11.2218 78.6117 11.2174 78.5516 11.2108C78.4892 11.2042 78.4045 11.1843 78.2953 11.1534L78.0501 12.0408C78.3064 12.1115 78.5605 12.1446 78.8079 12.1446C79.14 12.1424 79.423 12.0894 79.6526 11.9812Z" fill="#AFACAD"/>
<path d="M76.4431 1.70751H75.1616V1.49338C75.1616 1.37638 75.1861 1.28587 75.2374 1.22185C75.2797 1.16887 75.38 1.14238 75.5249 1.14238H76.1667V0.5H75.5093C75.1527 0.5 74.8741 0.592715 74.6869 0.775938C74.4974 0.959161 74.4016 1.25938 74.4016 1.66336V2.41611H76.4453V1.70751H76.4431Z" fill="#AFACAD"/>
<path d="M67.3721 12.9702H66.4383V13.893H67.3721V12.9702Z" fill="#AFACAD"/>
<path d="M51.6975 1.4978H50.7637V2.42054H51.6975V1.4978Z" fill="#AFACAD"/>
<path d="M72.2374 8.87306C72.5918 9.12251 73.0019 9.30794 73.4677 9.42715C73.9335 9.54635 74.4283 9.60596 74.9498 9.60596H75.1972L75.5114 8.95474V9.87086C75.5114 10.3543 75.371 10.7009 75.0924 10.9084C74.8116 11.1159 74.4194 11.2196 73.9134 11.2196C73.6259 11.2196 73.3674 11.1932 73.1378 11.138C72.9083 11.085 72.6453 10.9923 72.3511 10.862L72.0591 11.7494C72.4157 11.8797 72.7344 11.979 73.0108 12.043C73.2872 12.1093 73.5658 12.1402 73.8444 12.1402C74.7537 12.1402 75.4156 11.926 75.8279 11.5C76.2402 11.0717 76.4453 10.4978 76.4453 9.77593V3.34326H74.952C74.377 3.34326 73.851 3.42494 73.3763 3.58609C72.9016 3.74724 72.496 3.96799 72.1572 4.24834C71.8184 4.52869 71.5555 4.86423 71.3705 5.25275C71.1833 5.64128 71.0896 6.06291 71.0896 6.51545C71.0896 7.0607 71.1922 7.52869 71.3994 7.91721C71.6023 8.30353 71.8831 8.62362 72.2374 8.87306ZM72.2374 5.60375C72.3801 5.32781 72.5718 5.09161 72.808 4.89514C73.0442 4.69867 73.3161 4.54856 73.6192 4.44039C73.9134 4.33664 74.2188 4.28366 74.5353 4.28145V4.27925H76.0441L75.5114 4.54194V8.68543H74.5665C74.2165 8.68543 73.8889 8.63686 73.5814 8.53973C73.2738 8.44481 73.0041 8.30353 72.7701 8.1181C72.5361 7.93267 72.3533 7.7075 72.2218 7.43818C72.0903 7.16887 72.0235 6.86203 72.0235 6.51545C72.0213 6.18432 72.0926 5.87969 72.2374 5.60375Z" fill="#AFACAD"/>
<path d="M49.1501 12.0143H51.0891V11.3234C51.1069 11.3565 51.127 11.3896 51.1471 11.4183C51.2875 11.6214 51.4724 11.7781 51.702 11.8863C51.9316 11.9945 52.2124 12.0475 52.5467 12.0475H69.563V3.34326H68.6292V11.1269H67.6597H52.5801C52.4018 11.1269 52.2547 11.1026 52.1433 11.0519C52.0319 11.0011 51.9405 10.9216 51.8758 10.809C51.8112 10.6965 51.7644 10.5508 51.7354 10.3698C51.7087 10.1887 51.6953 9.96799 51.6953 9.7075V3.34326H49.1724C46.5915 3.34326 44.8353 5.36755 44.8353 7.6788V7.70309C44.8375 10.0143 46.5693 12.0143 49.1501 12.0143ZM45.8316 7.65452C45.8316 5.74944 47.2134 4.21744 49.1501 4.21744H51.3343L50.7615 4.5V9.7075C50.7615 10.0695 50.7905 10.394 50.8484 10.681C50.8818 10.8488 50.9309 11.0011 50.9933 11.1402H49.1724C47.2334 11.1402 45.8293 9.58388 45.8293 7.6788V7.65452H45.8316Z" fill="#AFACAD"/>
<path d="M40.1683 9.72294L40.5761 10.787L34.6477 3.33221H33.7228V11.9967H34.6856V5.46687L34.1373 4.20418L40.3443 11.9967H41.1333V3.33221H40.1683V9.72294Z" fill="#AFACAD"/>
<path d="M53.4603 25.8378L58.8404 20.7583V17.2748H44.4607V21.2417H51.8333L54.568 19.5022L47.7414 26.2903L48.4724 29.2351H50.4181C53.0324 29.2351 54.5836 30.1976 54.5836 31.9106V31.9702C54.5836 33.5331 53.3377 34.5243 51.5748 34.5243C49.4174 34.5243 47.8974 33.6236 46.4376 31.9989L43.2149 35.0342C45.038 37.1689 47.6834 38.67 51.5146 38.67C56.2573 38.67 59.1747 35.7539 59.1747 31.787V31.7274C59.177 27.8223 56.3487 26.319 53.4603 25.8378Z" fill="#AFACAD"/>
<path d="M27.6473 3.18433C24.9817 3.18433 23.1653 5.27483 23.1653 7.66556V7.68984C23.1653 10.0784 24.955 12.1446 27.6228 12.1446C30.2906 12.1446 32.1047 10.0541 32.1047 7.66556V7.64128C32.1025 5.25055 30.3128 3.18433 27.6473 3.18433ZM31.0773 7.68984C31.0773 9.65673 29.6509 11.2417 27.6473 11.2417C25.6437 11.2417 24.1928 9.63245 24.1928 7.66556V7.64128C24.1928 5.67439 25.6214 4.0894 27.6228 4.0894C29.6264 4.0894 31.0773 5.69867 31.0773 7.66556V7.68984Z" fill="#AFACAD"/>
<path d="M71.7226 16.9128C65.1568 16.9128 60.3828 21.8112 60.3828 27.7914V27.851C60.3828 33.8311 65.0943 38.67 71.6602 38.67C78.226 38.67 82.9999 33.7715 82.9999 27.7914V27.7318C83.0021 21.7516 78.2884 16.9128 71.7226 16.9128ZM78.1079 27.851C78.1079 31.458 75.4936 34.4028 71.7226 34.4028C67.9538 34.4028 65.2771 31.3984 65.2771 27.7914V27.7318C65.2771 24.1247 67.8914 21.1799 71.6602 21.1799C75.4289 21.1799 78.1056 24.1843 78.1056 27.7914V27.851H78.1079Z" fill="#AFACAD"/>
<path d="M21.4582 3.33221H20.4687V11.9945H21.4582V3.33221Z" fill="#AFACAD"/>
<path d="M4.58236 35.9062L5.48499 35.2174L10.1363 31.6678C13.9051 28.7826 15.7304 27.0408 15.7304 23.5243V23.4647C15.7304 19.5265 12.813 16.9724 8.40462 16.9724C4.60465 16.9724 2.5676 18.5044 0.470368 21.33L3.75328 23.9437C5.33344 22.021 6.45895 21.1203 8.10152 21.1203C9.77306 21.1203 10.9587 22.0828 10.9587 23.8554C10.9587 25.5971 9.92461 26.7406 7.28134 28.904L0.198463 34.6435V38.3102H15.9466V34.3124H7.83184L4.58236 35.9062Z" fill="#AFACAD"/>
<path d="M4.64703 12.0585L8.41357 3.33221H7.35047L4.37289 10.4338L4.4665 11.3874L4.22134 10.7958L1.64271 4.6236L1.10336 3.33221H0.00236893L3.77114 12.0585H4.64703Z" fill="#AFACAD"/>
<path d="M10.7469 3.33221H9.75732V11.9945H10.7469V3.33221Z" fill="#AFACAD"/>
<path d="M15.9846 7.19316C14.0567 6.78477 13.6065 6.32781 13.6065 5.51104V5.48675C13.6065 4.70751 14.3331 4.0894 15.472 4.0894C16.3724 4.0894 17.1881 4.37417 18.0016 5.0298L18.5766 4.27483C17.6873 3.56843 16.7735 3.21082 15.4965 3.21082C13.8316 3.21082 12.617 4.21302 12.617 5.57505V5.59934C12.617 7.02318 13.5441 7.66556 15.5589 8.10044C17.3998 8.48455 17.8366 8.9415 17.8366 9.74724V9.77152C17.8366 10.6258 17.061 11.2439 15.8843 11.2439C14.6696 11.2439 13.7937 10.8355 12.88 10.0188L12.2671 10.7362C13.319 11.6656 14.4579 12.1225 15.8464 12.1225C17.587 12.1225 18.8373 11.1578 18.8373 9.67218V9.6479C18.8373 8.32119 17.9369 7.61479 15.9846 7.19316Z" fill="#AFACAD"/>
<path d="M28.6613 15.5287L29.74 16.5508L28.7059 17.617L27.6272 16.5949L28.6613 15.5287Z" fill="#28316F"/>
<path d="M31.1286 16.5949L32.2051 17.617L33.2392 16.5508L32.1627 15.5287L31.1286 16.5949Z" fill="#B4B1B3"/>
<path d="M29.6108 17.9371L30.451 18.734L31.2556 17.904L30.4154 17.1071L29.6108 17.9371Z" fill="#D5D505"/>
<path d="M32.6887 18.3918L33.5267 19.1887L34.3312 18.3587L33.4932 17.564L32.6887 18.3918Z" fill="#75B12F"/>
<path d="M28.238 19.2042L29.0782 20.0011L29.8828 19.1711L29.0448 18.3764L28.238 19.2042Z" fill="#D5D505"/>
<path d="M31.0549 19.3013L31.8929 20.0982L32.6975 19.2682L31.8595 18.4713L31.0549 19.3013Z" fill="#29B0BA"/>
<path d="M29.9541 20.255L30.5425 20.8157L31.1108 20.2329L30.5202 19.6722L29.9541 20.255Z" fill="#75B12F"/>
<path d="M32.1805 20.6964L32.7689 21.2549L33.3372 20.6722L32.7466 20.1115L32.1805 20.6964Z" fill="#5AAC4C"/>
<path d="M38.8728 15.9248L37.0423 16.2571L37.3774 18.068L39.2079 17.7357L38.8728 15.9248Z" fill="#2983C6"/>
<path d="M36.1139 16.7469L34.6452 17.0133L34.9137 18.4659L36.3825 18.1995L36.1139 16.7469Z" fill="#213466"/>
<path d="M38.9613 18.7741L37.4925 19.0409L37.7615 20.4935L39.2303 20.2267L38.9613 18.7741Z" fill="#29B0BA"/>
<path d="M36.6065 19.043L35.4622 19.2507L35.6714 20.3819L36.8157 20.1743L36.6065 19.043Z" fill="#D5D505"/>
<path d="M38.8329 21.1909L37.6886 21.3985L37.8979 22.5297L39.0422 22.3221L38.8329 21.1909Z" fill="#B4B1B3"/>
<path d="M34.8927 19.5044L33.7484 19.712L33.9576 20.8433L35.102 20.6356L34.8927 19.5044Z" fill="#29B0BA"/>
<path d="M36.9697 20.9856L35.8254 21.1932L36.0347 22.3245L37.179 22.1168L36.9697 20.9856Z" fill="#75B12F"/>
<path d="M35.1732 21.1863L34.3687 21.3323L34.5157 22.127L35.3203 21.981L35.1732 21.1863Z" fill="#B4B1B3"/>
<path d="M36.7228 22.8309L35.9182 22.9766L36.0649 23.7713L36.8695 23.6257L36.7228 22.8309Z" fill="#5AAC4C"/>
<path d="M42.4883 22.1865L41.6882 23.8488L43.3686 24.6391L44.1687 22.979L42.4883 22.1865Z" fill="#28316F"/>
<path d="M40.1014 21.4183L39.4595 22.7517L40.8079 23.3874L41.4497 22.0541L40.1014 21.4183Z" fill="#29B0BA"/>
<path d="M41.2047 24.7031L40.5628 26.0364L41.9134 26.6699L42.5553 25.3388L41.2047 24.7031Z" fill="#75B12F"/>
<path d="M39.4373 23.7031L38.938 24.7429L39.9877 25.2351L40.4892 24.1976L39.4373 23.7031Z" fill="#D5D505"/>
<path d="M39.9721 26.734L39.4707 27.7715L40.5204 28.266L41.0219 27.2263L39.9721 26.734Z" fill="#D5D505"/>
<path d="M37.7746 23.085L37.2753 24.1247L38.3251 24.617L38.8265 23.5794L37.7746 23.085Z" fill="#2983C6"/>
<path d="M38.5837 25.4868L38.0822 26.5265L39.1341 27.0188L39.6334 25.9812L38.5837 25.4868Z" fill="#B4B1B3"/>
<path d="M37.32 24.756L36.9679 25.4867L37.7078 25.8333L38.0577 25.1026L37.32 24.756Z" fill="#75B12F"/>
<path d="M37.6028 26.98L37.2523 27.7095L37.9909 28.0577L38.3414 27.3281L37.6028 26.98Z" fill="#29B0BA"/>
<path d="M43.3932 30.1468L41.7617 31.0298L42.6577 32.6435L44.2891 31.7605L43.3932 30.1468Z" fill="#2983C6"/>
<path d="M41.9133 28.1424L40.6028 28.8532L41.3227 30.1468L42.6309 29.436L41.9133 28.1424Z" fill="#29B0BA"/>
<path d="M40.8638 31.4448L39.5555 32.1556L40.2732 33.4492L41.5837 32.7384L40.8638 31.4448Z" fill="#29B0BA"/>
<path d="M40.0235 29.6104L39.0027 30.1644L39.5621 31.1711L40.5829 30.6192L40.0235 29.6104Z" fill="#28316F"/>
<path d="M38.6618 32.3763L37.6432 32.9304L38.2027 33.937L39.2212 33.3852L38.6618 32.3763Z" fill="#5AAC4C"/>
<path d="M39.0405 28.149L38.0219 28.7009L38.5791 29.7098L39.5999 29.1557L39.0405 28.149Z" fill="#213466"/>
<path d="M38.2739 30.564L37.2532 31.1159L37.8126 32.1247L38.8333 31.5707L38.2739 30.564Z" fill="#D5D505"/>
<path d="M37.6833 29.2395L36.9657 29.628L37.3602 30.3366L38.0756 29.9481L37.6833 29.2395Z" fill="#B4B1B3"/>
<path d="M36.5912 31.2086L35.8736 31.5971L36.268 32.3057L36.9857 31.9172L36.5912 31.2086Z" fill="#29B0BA"/>
<path d="M37.572 36.8878L37.3441 38.715L39.1912 38.941L39.4191 37.1138L37.572 36.8878Z" fill="#75B12F"/>
<path d="M37.9216 34.4623L37.7382 35.9279L39.2201 36.1098L39.4035 34.6442L37.9216 34.4623Z" fill="#213466"/>
<path d="M35.1184 36.5352L34.935 38.0008L36.4169 38.1827L36.6003 36.7171L35.1184 36.5352Z" fill="#29B0BA"/>
<path d="M35.845 34.6081L35.7025 35.7495L36.857 35.8908L36.9995 34.7495L35.845 34.6081Z" fill="#75B12F"/>
<path d="M33.1047 36.0627L32.9622 37.2041L34.1168 37.3455L34.2593 36.2041L33.1047 36.0627Z" fill="#B4B1B3"/>
<path d="M35.9171 32.8489L35.7742 33.9903L36.9288 34.132L37.0716 32.9907L35.9171 32.8489Z" fill="#B4B1B3"/>
<path d="M33.8661 34.3616L33.7233 35.503L34.8778 35.6447L35.0207 34.5034L33.8661 34.3616Z" fill="#75B12F"/>
<path d="M34.5102 32.9913L34.41 33.7931L35.2218 33.8926L35.3219 33.0908L34.5102 32.9913Z" fill="#B4B1B3"/>
<path d="M32.4571 33.9578L32.357 34.7596L33.1687 34.859L33.2688 34.0572L32.4571 33.9578Z" fill="#B4B1B3"/>
<path d="M32.0646 40.4824L30.7006 39.2307L29.4325 40.5795L30.7964 41.8312L32.0646 40.4824Z" fill="#D5D505"/>
<path d="M31.8128 14.7031L30.4488 13.4514L29.1806 14.8002L30.5468 16.0519L31.8128 14.7031Z" fill="#75B12F"/>
<path d="M33.5199 38.4625L32.4256 37.4581L31.4093 38.5397L32.5036 39.5442L33.5199 38.4625Z" fill="#29B0BA"/>
<path d="M30.0209 38.5199L28.9243 37.5154L27.908 38.5971L29.0046 39.6015L30.0209 38.5199Z" fill="#75B12F"/>
<path d="M31.5142 37.1534L30.6628 36.3698L29.8716 37.213L30.723 37.9945L31.5142 37.1534Z" fill="#2983C6"/>
<path d="M28.4297 36.7472L27.5783 35.9658L26.7871 36.8068L27.6407 37.5905L28.4297 36.7472Z" fill="#D5D505"/>
<path d="M32.6085 35.7693L31.7572 34.9879L30.966 35.8289L31.8173 36.6126L32.6085 35.7693Z" fill="#D5D505"/>
<path d="M30.0476 35.8112L29.1962 35.0298L28.405 35.8708L29.2564 36.6545L30.0476 35.8112Z" fill="#B4B1B3"/>
<path d="M31.1331 34.84L30.5336 34.2881L29.9764 34.8819L30.5759 35.4316L31.1331 34.84Z" fill="#213466"/>
<path d="M28.9 34.436L28.3005 33.8863L27.7433 34.4779L28.3428 35.0276L28.9 34.436Z" fill="#B4B1B3"/>
<path d="M23.7467 37.149L21.922 37.5112L22.2873 39.3163L24.112 38.9541L23.7467 37.149Z" fill="#2983C6"/>
<path d="M26.1945 36.7059L24.7303 36.9963L25.0232 38.4444L26.4873 38.1539L26.1945 36.7059Z" fill="#29B0BA"/>
<path d="M23.3296 34.7321L21.8654 35.023L22.1587 36.471L23.6229 36.1801L23.3296 34.7321Z" fill="#75B12F"/>
<path d="M25.4057 34.8058L24.265 35.0321L24.4931 36.1598L25.6338 35.9335L25.4057 34.8058Z" fill="#D5D505"/>
<path d="M27.1125 34.3157L25.9718 34.5421L26.1999 35.6697L27.3406 35.4434L27.1125 34.3157Z" fill="#28316F"/>
<path d="M25.0131 32.8695L23.8724 33.0958L24.1005 34.2235L25.2412 33.9972L25.0131 32.8695Z" fill="#2983C6"/>
<path d="M26.5386 33.0523L25.7365 33.2112L25.8966 34.0035L26.6987 33.8446L26.5386 33.0523Z" fill="#75B12F"/>
<path d="M24.9693 31.4292L24.1673 31.5886L24.3277 32.3808L25.1297 32.2214L24.9693 31.4292Z" fill="#B4B1B3"/>
<path d="M18.5674 33.1137L19.3408 31.4382L17.6448 30.6766L16.8736 32.3499L18.5674 33.1137Z" fill="#29B0BA"/>
<path d="M20.9679 33.8421L21.5853 32.5L20.228 31.8863L19.6084 33.2307L20.9679 33.8421Z" fill="#D5D505"/>
<path d="M19.8089 30.5772L20.4284 29.2329L19.0689 28.6214L18.4493 29.9658L19.8089 30.5772Z" fill="#2983C6"/>
<path d="M21.0121 30.0213L20.5304 31.0678L21.5889 31.5459L22.0707 30.4994L21.0121 30.0213Z" fill="#29B0BA"/>
<path d="M23.0094 34.1645L23.4908 33.1181L22.4321 32.6413L21.9507 33.6877L23.0094 34.1645Z" fill="#B4B1B3"/>
<path d="M20.436 27.0024L19.954 28.0488L21.0125 28.5271L21.4945 27.4807L20.436 27.0024Z" fill="#28316F"/>
<path d="M22.6935 30.6156L22.2115 31.6619L23.27 32.1403L23.752 31.0939L22.6935 30.6156Z" fill="#5AAC4C"/>
<path d="M21.8404 28.2314L21.358 29.2776L22.4162 29.7563L22.8986 28.7101L21.8404 28.2314Z" fill="#D5D505"/>
<path d="M23.6913 30.4602L24.0323 29.7251L23.2879 29.3896L22.9469 30.1269L23.6913 30.4602Z" fill="#213466"/>
<path d="M23.3748 28.2395L23.7136 27.5022L22.9692 27.1667L22.6304 27.904L23.3748 28.2395Z" fill="#75B12F"/>
<path d="M17.5289 25.1711L19.1469 24.2594L18.2242 22.6611L16.6062 23.5728L17.5289 25.1711Z" fill="#29B0BA"/>
<path d="M19.0423 27.149L20.3416 26.4183L19.5994 25.1357L18.3023 25.8664L19.0423 27.149Z" fill="#75B12F"/>
<path d="M20.0362 23.8311L21.3333 23.1004L20.5934 21.8179L19.2963 22.5486L20.0362 23.8311Z" fill="#213466"/>
<path d="M20.9078 25.6501L21.9174 25.0806L21.3424 24.0828L20.3328 24.6523L20.9078 25.6501Z" fill="#2983C6"/>
<path d="M22.2226 22.8642L23.2323 22.2947L22.6572 21.2947L21.6454 21.8642L22.2226 22.8642Z" fill="#75B12F"/>
<path d="M21.915 27.096L22.9246 26.5265L22.3496 25.5287L21.3377 26.0982L21.915 27.096Z" fill="#29B0BA"/>
<path d="M22.6416 24.67L23.6512 24.1005L23.0762 23.1005L22.0644 23.6722L22.6416 24.67Z" fill="#D5D505"/>
<path d="M23.2544 25.9834L23.9654 25.5839L23.5597 24.8819L22.8488 25.2815L23.2544 25.9834Z" fill="#B4B1B3"/>
<path d="M24.3131 23.9989L25.024 23.5971L24.6184 22.8951L23.9074 23.2947L24.3131 23.9989Z" fill="#75B12F"/>
<path d="M21.5824 16.3022L21.3848 18.1328L23.2352 18.3287L23.4328 16.4981L21.5824 16.3022Z" fill="#75B12F"/>
<path d="M21.6001 19.1419L21.4415 20.6104L22.9262 20.7677L23.0849 19.2993L21.6001 19.1419Z" fill="#B4B1B3"/>
<path d="M24.3718 17.0265L24.2132 18.4949L25.6979 18.6522L25.8566 17.1838L24.3718 17.0265Z" fill="#29B0BA"/>
<path d="M23.9674 19.3315L23.8437 20.475L25.0005 20.5978L25.1241 19.4542L23.9674 19.3315Z" fill="#D5D505"/>
<path d="M26.6851 17.8217L26.5619 18.9653L27.7188 19.0876L27.842 17.9439L26.6851 17.8217Z" fill="#2983C6"/>
<path d="M23.9281 21.0857L23.8044 22.2292L24.9612 22.352L25.0849 21.2084L23.9281 21.0857Z" fill="#29B0BA"/>
<path d="M25.9535 19.5381L25.8298 20.6816L26.9866 20.8044L27.1103 19.6608L25.9535 19.5381Z" fill="#75B12F"/>
<path d="M25.6359 21.2992L25.5491 22.1025L26.3624 22.1887L26.4492 21.3854L25.6359 21.2992Z" fill="#213466"/>
<path d="M27.6696 20.2986L27.5833 21.102L28.3966 21.1877L28.483 20.3843L27.6696 20.2986Z" fill="#B4B1B3"/>
<path d="M36.3683 28.7715C36.2301 28.6943 35.9783 28.564 35.6306 28.4558C35.1291 28.2969 34.4293 28.1777 33.6002 28.3079C33.3216 28.3521 33.0275 28.4249 32.7221 28.5331C32.6931 28.5441 32.6642 28.553 32.6352 28.564C32.4792 28.6214 32.3254 28.692 32.1694 28.7693C32.0357 28.8355 31.9042 28.9084 31.7727 28.9878C31.4718 29.1667 31.1754 29.3697 30.8879 29.5905C30.5603 27.628 30.7207 25.8068 30.7965 24.9128C30.7965 24.9084 30.8032 24.9062 30.8076 24.9084C31.5097 25.3455 31.3136 26.5662 31.1642 26.9172C31.162 26.9238 31.1709 26.9282 31.1776 26.9238C32.0513 25.9018 31.6256 24.7715 31.4451 24.4867C31.4406 24.4801 31.4495 24.4735 31.4562 24.4779C31.5832 24.5795 31.6858 24.6876 31.7727 24.798C32.0424 25.1402 32.1427 25.5088 32.1694 25.8355C32.1828 26.0077 32.1783 26.1667 32.1694 26.3035C32.1672 26.3411 32.1649 26.3742 32.1605 26.4073C32.1605 26.4117 32.1649 26.4139 32.1694 26.4117C32.1716 26.4117 32.1739 26.4117 32.1739 26.4095C32.4101 25.9503 32.5238 25.2572 32.1694 24.5839C32.0736 24.4007 31.9443 24.2196 31.7727 24.0452C31.7237 23.9945 31.6702 23.9459 31.6144 23.8951C31.61 23.8907 31.6144 23.8819 31.6211 23.8841C31.6746 23.8973 31.7237 23.9128 31.7727 23.9282C31.922 23.979 32.0535 24.0497 32.1694 24.1358C32.4346 24.33 32.6151 24.5949 32.7221 24.8731C32.8113 25.1026 32.8514 25.3388 32.8514 25.5486C32.8514 25.5574 32.8625 25.5574 32.8648 25.5508C33.0297 24.9525 32.9294 24.5 32.7221 24.1711C32.575 23.9349 32.3722 23.7627 32.1694 23.6413C32.0312 23.5596 31.893 23.5022 31.7727 23.4669C31.7014 23.4448 31.639 23.4316 31.5832 23.4249C31.5743 23.4249 31.5766 23.4117 31.5855 23.4117C31.6501 23.4051 31.7125 23.4029 31.7727 23.4007C31.9198 23.3984 32.0513 23.4117 32.1694 23.4316C32.4034 23.4757 32.5862 23.5552 32.7221 23.6479C32.945 23.7958 33.0564 23.9702 33.0943 24.0408C33.0965 24.0475 33.1077 24.043 33.1077 24.0364C33.0765 23.7207 32.9294 23.4735 32.7244 23.2969C32.5661 23.16 32.3722 23.0651 32.1716 23.0077C32.0401 22.9724 31.9064 22.9525 31.7749 22.9503C31.5966 22.9481 31.425 22.9768 31.2801 23.0386C31.2735 23.0408 31.269 23.0342 31.2712 23.0276C31.4005 22.8444 31.5832 22.734 31.7749 22.6744C31.9086 22.6346 32.0446 22.6192 32.1716 22.628C32.2942 22.6346 32.4056 22.6611 32.497 22.7031C32.5037 22.7053 32.5082 22.6987 32.5037 22.692C32.4034 22.5795 32.2897 22.4912 32.1716 22.4249C32.0446 22.3543 31.9109 22.3124 31.7749 22.2969C31.4205 22.2572 31.0595 22.4073 30.8188 22.7671C30.8166 22.7715 30.8099 22.7715 30.8076 22.7671C30.7608 22.6854 30.7163 22.5949 30.6762 22.5C30.5803 22.2792 30.5023 22.032 30.46 21.7848C30.4577 21.7759 30.4488 21.7759 30.4488 21.7848C30.4065 22.032 30.3262 22.2814 30.2304 22.5022C30.1881 22.5971 30.1457 22.6854 30.0989 22.7649C30.0967 22.7693 30.09 22.7693 30.0878 22.7649C29.6688 22.1358 28.882 22.149 28.4029 22.692C28.3984 22.6965 28.4029 22.7053 28.4095 22.7031C28.7283 22.553 29.3322 22.5971 29.6353 23.0276C29.6398 23.0342 29.6331 23.0408 29.6264 23.0386C29.1606 22.8444 28.4385 22.9702 28.0529 23.4249C27.9148 23.5861 27.8212 23.7914 27.7966 24.0364C27.7966 24.043 27.8056 24.0475 27.81 24.0408C27.839 23.9856 27.9148 23.8664 28.0529 23.745C28.278 23.5486 28.6703 23.3499 29.3189 23.4095C29.3278 23.4117 29.3278 23.4227 29.3211 23.4227C28.989 23.4625 28.3048 23.7561 28.0529 24.4271C27.9415 24.7229 27.9125 25.0938 28.0373 25.5486C28.0396 25.5552 28.0507 25.5552 28.0507 25.5463C28.0507 25.5353 28.0507 25.5265 28.0529 25.5154C28.0596 24.9062 28.4118 24.0894 29.2832 23.8819C29.2899 23.8797 29.2943 23.8885 29.2899 23.8929C28.3159 24.7406 28.4118 25.787 28.7305 26.4051C28.7349 26.4117 28.7439 26.4095 28.7439 26.4029C28.7015 25.9349 28.6681 25.1026 29.4481 24.4735C29.4548 24.4691 29.4637 24.4757 29.4593 24.4823C29.2787 24.7693 28.8531 25.8973 29.7267 26.9194C29.7312 26.926 29.7423 26.9216 29.7401 26.9128C29.593 26.564 29.3969 25.341 30.0967 24.904C30.1011 24.9018 30.1078 24.904 30.1078 24.9084C30.1836 25.8024 30.3441 27.6236 30.0165 29.5861C29.4526 29.1578 28.8575 28.7826 28.2691 28.5618C28.1956 28.5353 28.1243 28.511 28.0552 28.4867C27.4467 28.2881 26.8896 28.2329 26.4037 28.255C25.6236 28.2881 25.0263 28.5199 24.6987 28.681C24.6319 28.7141 24.5761 28.745 24.5338 28.7693C24.516 28.7803 24.5293 28.8046 24.5472 28.798C24.5984 28.7825 24.6475 28.7671 24.6987 28.7539C25.2982 28.5861 25.8666 28.5419 26.4037 28.5883C26.9898 28.6391 27.5403 28.798 28.0552 29.0276C28.7773 29.3499 29.4303 29.809 30.0209 30.2947C29.1874 31.0143 28.4831 31.7141 28.0552 31.9592C28.0329 31.9702 28.0128 31.9834 27.9928 31.9945C27.8903 31.8554 27.712 31.7759 27.5181 31.8179C27.3487 31.8554 27.2105 31.9901 27.1726 32.1556C27.1392 32.3035 27.1771 32.4647 27.2618 32.5486C27.4891 32.7737 27.7521 32.7892 28.0552 32.6633C28.6324 32.4227 29.3501 31.6678 30.2304 30.8686C30.304 30.8024 30.3775 30.734 30.4533 30.6678C30.5291 30.734 30.6026 30.8002 30.6762 30.8664C31.0751 31.2285 31.4406 31.5817 31.7749 31.8819C31.9131 32.0055 32.0446 32.1203 32.1716 32.2218C32.3678 32.3808 32.5527 32.511 32.7244 32.6015C33.0609 32.7781 33.3529 32.8002 33.6025 32.5817C33.6158 32.5706 33.6292 32.5596 33.6426 32.5463C33.7005 32.489 33.7674 32.3013 33.7317 32.1534C33.7117 32.0673 33.6649 31.9901 33.6002 31.9305C33.5423 31.8753 33.4665 31.8333 33.3863 31.8157C33.1924 31.7737 33.0141 31.8532 32.9116 31.9923C32.8536 31.9636 32.7912 31.9238 32.7221 31.8775C32.5639 31.7693 32.3789 31.617 32.1694 31.436C32.0446 31.3278 31.9131 31.2086 31.7727 31.0828C31.5008 30.8377 31.2021 30.5684 30.8857 30.2925C31.1665 30.0607 31.4629 29.8355 31.7727 29.628C31.902 29.5419 32.0334 29.458 32.1694 29.3786C32.3499 29.2726 32.5327 29.1755 32.7221 29.085C33.0052 28.9503 33.2971 28.8377 33.6002 28.7516C34.2287 28.5728 34.904 28.5132 35.6306 28.628C35.8669 28.6656 36.1076 28.7207 36.3549 28.7958C36.3728 28.8068 36.3861 28.7826 36.3683 28.7715Z" fill="#757A81"/>
<path d="M4.87213 48.8179H4.32387V49.3609H4.87213V48.8179Z" fill="#AFACAD"/>
<path d="M41.2381 48.1909V44.606H40.7032V47.6611H38.6862V44.606H38.1513V47.6611H36.0274V44.606H35.1871C34.8528 44.606 34.5497 44.6501 34.2778 44.7406C34.0059 44.8311 33.7741 44.957 33.5825 45.1159C33.3908 45.277 33.2437 45.4669 33.1389 45.6876C33.0342 45.9084 32.9829 46.1446 32.9829 46.4007C32.9829 46.7141 33.0431 46.9812 33.1635 47.2064C33.2838 47.4316 33.4443 47.6148 33.6449 47.7605C33.8454 47.9062 34.0795 48.0144 34.3469 48.0828C34.6143 48.1534 34.8952 48.1887 35.1894 48.1887L41.2381 48.1909ZM34.4026 47.5773C34.2266 47.5199 34.0728 47.4382 33.9413 47.33C33.8098 47.2219 33.7073 47.0894 33.6315 46.9349C33.5557 46.7781 33.5178 46.6015 33.5178 46.4029C33.5178 46.213 33.5602 46.0408 33.6426 45.8841C33.7251 45.7274 33.8343 45.5949 33.9702 45.4823C34.1062 45.3698 34.26 45.2837 34.4338 45.2241C34.6077 45.1645 34.786 45.1358 34.9687 45.1358H35.4969V47.6634H34.9687C34.7681 47.6634 34.5787 47.6347 34.4026 47.5773Z" fill="#AFACAD"/>
<path d="M30.3462 43.4536H29.8113V48.1909H30.3462V43.4536Z" fill="#AFACAD"/>
<path d="M36.0274 43.4536H35.4792V43.9967H36.0274V43.4536Z" fill="#AFACAD"/>
<path d="M41.2447 48.8112H40.6964V49.3543H41.2447V48.8112Z" fill="#AFACAD"/>
<path d="M5.80795 48.8179H5.25969V49.3609H5.80795V48.8179Z" fill="#AFACAD"/>
<path d="M27.7209 47.6633H26.8473C26.5352 47.6633 26.2901 47.6192 26.1118 47.5309C25.9335 47.4426 25.7931 47.3101 25.6905 47.1357C25.7217 46.9989 25.7373 46.8333 25.7373 46.6413V44.9371H25.2025V46.7251C25.2025 47.0298 25.12 47.2726 24.9551 47.4558C24.7901 47.6391 24.5405 47.7296 24.2062 47.7296C24.0502 47.7296 23.9076 47.7053 23.7783 47.6567C23.649 47.6081 23.5376 47.5419 23.444 47.458C23.3504 47.3742 23.2768 47.277 23.2233 47.1644C23.1699 47.0519 23.1409 46.9327 23.1364 46.8046V44.9371H22.6015V46.7649C22.6015 46.9282 22.577 47.0651 22.528 47.1777C22.479 47.2903 22.4121 47.383 22.3274 47.4558C22.2427 47.5287 22.1469 47.5817 22.0399 47.6148C21.9329 47.6479 21.8193 47.6633 21.6989 47.6633H20.6648V44.9371H20.1299V47.6633H17.3306L18.2644 45.4514C18.1218 45.3278 17.9703 45.213 17.8098 45.1048C17.6493 44.9967 17.4844 44.9017 17.315 44.8201C17.1456 44.7384 16.974 44.6744 16.8002 44.628C16.6263 44.5817 16.4547 44.5596 16.2853 44.5596C16.1115 44.5596 15.9377 44.5839 15.7638 44.628C15.59 44.6744 15.4184 44.7362 15.2468 44.8157C15.0751 44.8951 14.9102 44.99 14.752 45.1004C14.5937 45.2108 14.4466 45.3256 14.3085 45.4492L15.249 47.6611H13.3991V44.6059H12.5455C12.2157 44.6059 11.9148 44.6523 11.6429 44.745C11.371 44.8377 11.1392 44.9636 10.9453 45.1247C10.7514 45.2859 10.6021 45.4779 10.4951 45.6987C10.3881 45.9216 10.3346 46.1622 10.3346 46.4227C10.3346 46.7362 10.3926 47.0033 10.5107 47.224C10.6288 47.447 10.7893 47.6302 10.9921 47.7715C11.1949 47.915 11.4289 48.021 11.6964 48.0872C11.9638 48.1556 12.2469 48.1887 12.5455 48.1887H12.8665V48.341C12.8665 48.6192 12.7862 48.8157 12.6258 48.9349C12.4653 49.0541 12.2402 49.1137 11.9505 49.1137C11.7855 49.1137 11.6384 49.0982 11.507 49.0673C11.3755 49.0364 11.2261 48.9834 11.0568 48.9084L10.8896 49.4161C11.0946 49.4911 11.2752 49.5463 11.4334 49.5839C11.5916 49.6214 11.7499 49.6413 11.9104 49.6413C12.4319 49.6413 12.8085 49.5198 13.0448 49.2748C13.281 49.0298 13.3991 48.7009 13.3991 48.2881V48.1887H21.6989C21.9574 48.1887 22.187 48.1335 22.3898 48.0232C22.5926 47.9128 22.7553 47.7649 22.8801 47.5817C23.0094 47.7936 23.1855 47.9591 23.4083 48.0761C23.6312 48.1953 23.8964 48.2549 24.204 48.2549C24.5249 48.2549 24.7968 48.1998 25.0219 48.0894C25.247 47.979 25.4186 47.8112 25.539 47.5817C25.5836 47.6567 25.6371 47.7296 25.7017 47.8024C25.7663 47.8753 25.8488 47.9393 25.9513 47.9967C26.0538 48.0541 26.1786 48.1004 26.3213 48.1357C26.4305 48.1622 26.562 48.1755 26.7046 48.1821V48.1887H28.2469V43.4514H27.712V47.6633H27.7209ZM12.8687 47.6633H12.3271C12.1265 47.6633 11.9393 47.6368 11.7633 47.5817C11.5872 47.5265 11.4334 47.447 11.2997 47.341C11.166 47.2351 11.0612 47.1048 10.9854 46.9525C10.9097 46.798 10.8718 46.6214 10.8718 46.4249C10.8718 46.2351 10.9119 46.0629 10.9943 45.904C11.0768 45.745 11.186 45.6104 11.322 45.4978C11.4579 45.3852 11.6117 45.2991 11.7855 45.2373C11.9594 45.1755 12.1399 45.1446 12.3271 45.1446H12.8687V47.6633ZM15.8151 47.6633L14.9815 45.6368C15.1866 45.4647 15.3961 45.3388 15.6123 45.2616C15.8284 45.1821 16.0535 45.1424 16.2898 45.1424C16.5305 45.1424 16.769 45.1887 17.0052 45.2836C17.2415 45.3786 17.442 45.4956 17.607 45.6368L16.7734 47.6633H15.8151Z" fill="#AFACAD"/>
<path d="M3.04448 43.4536H2.49622V43.9967H3.04448V43.4536Z" fill="#AFACAD"/>
<path d="M57.0753 43.4536H56.527V43.9967H57.0753V43.4536Z" fill="#AFACAD"/>
<path d="M52.3305 43.4536H51.7956V48.1909H52.3305V43.4536Z" fill="#AFACAD"/>
<path d="M35.0913 43.4536H34.5431V43.9967H35.0913V43.4536Z" fill="#AFACAD"/>
<path d="M9.48994 46.1137C9.48994 45.9062 9.46319 45.7141 9.40524 45.5331C9.34953 45.3521 9.26484 45.1998 9.14894 45.0717C9.0063 44.9172 8.84806 44.8024 8.672 44.7251C8.49593 44.6479 8.28197 44.6104 8.0279 44.6104H7.63341V45.1379H8.10144C8.23071 45.1379 8.35329 45.1666 8.46918 45.2196C8.58507 45.2748 8.68091 45.3455 8.75669 45.4338C8.83246 45.5265 8.88372 45.628 8.9127 45.7384C8.94167 45.8488 8.95727 45.9812 8.95727 46.1335V47.6655H6.45219V48.1931H9.48994V46.1137Z" fill="#AFACAD"/>
<path d="M80.5907 43.4536H80.0558V48.1909H80.5907V43.4536Z" fill="#AFACAD"/>
<path d="M58.0114 43.4536H57.4631V43.9967H58.0114V43.4536Z" fill="#AFACAD"/>
<path d="M78.5 43.4536H77.9651V47.6633H76.1286C76.24 47.4205 76.2957 47.1622 76.2957 46.8841C76.2957 46.6126 76.2445 46.3565 76.1464 46.1225C76.0461 45.8863 75.9102 45.6832 75.7363 45.5132C75.5625 45.341 75.3575 45.2064 75.119 45.107C74.8805 45.0077 74.6242 44.9591 74.3478 44.9591C74.0804 44.9591 73.8308 45.0099 73.599 45.1115C73.3672 45.213 73.1666 45.3499 72.995 45.5243C72.8234 45.6987 72.6897 45.9017 72.5916 46.1357C72.4935 46.3697 72.4445 46.6192 72.4445 46.8885C72.4445 47.0298 72.4601 47.1644 72.4891 47.2947C72.5181 47.4249 72.556 47.5485 72.605 47.6677H70.949C71.0605 47.4249 71.1162 47.1666 71.1162 46.8885C71.1162 46.617 71.0649 46.3609 70.9669 46.1269C70.8666 45.8907 70.7306 45.6876 70.5568 45.5176C70.3829 45.3455 70.1779 45.2108 69.9394 45.1115C69.701 45.0121 69.4447 44.9636 69.1683 44.9636C68.9008 44.9636 68.6535 45.0143 68.4217 45.1159C68.1899 45.2174 67.9893 45.3543 67.8177 45.5287C67.6461 45.7031 67.5124 45.9062 67.4143 46.1401C67.3162 46.3741 67.2672 46.6236 67.2672 46.8929C67.2672 47.0342 67.2828 47.1688 67.3118 47.2991C67.3407 47.4293 67.3786 47.553 67.4277 47.6722H65.7316V43.4624H65.1967V47.6722H63.494V46.8642C63.494 46.6611 63.4672 46.4691 63.4137 46.2858C63.3602 46.1026 63.2755 45.9481 63.1597 45.8201C63.0215 45.6655 62.8655 45.5507 62.6916 45.4757C62.5178 45.4006 62.2971 45.3631 62.0297 45.3631H59.665L60.6702 43.4602H60.0885L59.0633 45.3565C59.0811 45.4713 59.1078 45.5706 59.148 45.6545C59.1858 45.7384 59.2371 45.8179 59.304 45.8929H62.0275C62.1969 45.8929 62.3417 45.9172 62.4643 45.9702C62.5869 46.0209 62.6849 46.0894 62.7607 46.1777C62.8365 46.266 62.8878 46.3675 62.9145 46.4823C62.9412 46.5971 62.9546 46.7251 62.9546 46.8642V47.6722H58.0135V44.617H57.1711C56.8368 44.617 56.5337 44.6611 56.264 44.7516C55.9921 44.8421 55.7603 44.968 55.5686 45.1269C55.377 45.2881 55.2299 45.4779 55.1251 45.6986C55.0204 45.9194 54.9691 46.1556 54.9691 46.4117C54.9691 46.7251 55.0293 46.9922 55.1496 47.2174C55.27 47.4426 55.4304 47.6258 55.631 47.7715C55.8316 47.9172 56.0656 48.0254 56.3331 48.0938C56.6005 48.1644 56.8813 48.1998 57.1733 48.1998H67.7709C67.9447 48.3852 68.1498 48.5309 68.3882 48.639C68.6267 48.7472 68.8852 48.8002 69.1661 48.8002C69.4513 48.8002 69.7166 48.7472 69.9639 48.6413C70.2113 48.5353 70.4231 48.3874 70.6014 48.1998H72.9527C73.1265 48.3852 73.3315 48.5309 73.57 48.639C73.8085 48.7472 74.067 48.8002 74.3478 48.8002C74.6331 48.8002 74.8983 48.7472 75.1457 48.6413C75.3931 48.5353 75.6048 48.3874 75.7831 48.1998H78.5V43.4536ZM57.4786 47.6633H56.9504C56.7499 47.6633 56.5626 47.6346 56.3866 47.5772C56.2105 47.5198 56.0567 47.4382 55.9252 47.33C55.7937 47.2218 55.6912 47.0894 55.6154 46.9349C55.5397 46.7781 55.5018 46.6015 55.5018 46.4028C55.5018 46.213 55.5419 46.0408 55.6243 45.8841C55.7068 45.7273 55.816 45.5949 55.952 45.4823C56.0879 45.3697 56.2417 45.2836 56.4155 45.224C56.5894 45.1644 56.7677 45.1357 56.9504 45.1357H57.4786V47.6633ZM70.4699 47.4293C70.3963 47.5993 70.296 47.745 70.169 47.8686C70.042 47.9922 69.8926 48.0872 69.721 48.1556C69.5494 48.224 69.3644 48.2571 69.1638 48.2571C68.9677 48.2571 68.7872 48.2196 68.62 48.149C68.4529 48.0761 68.308 47.9768 68.1854 47.851C68.0628 47.7251 67.967 47.5794 67.8979 47.4117C67.8288 47.2439 67.7954 47.0651 67.7954 46.8775C67.7954 46.6876 67.8311 46.5088 67.8979 46.3388C67.967 46.1688 68.0628 46.0231 68.1832 45.8973C68.3035 45.7715 68.4462 45.6722 68.6133 45.5971C68.7805 45.522 68.9633 45.4845 69.1638 45.4845C69.3689 45.4845 69.5561 45.5198 69.7277 45.5905C69.8993 45.6611 70.0486 45.7583 70.1757 45.8819C70.3027 46.0055 70.4008 46.1512 70.4721 46.3212C70.5434 46.4911 70.5791 46.6766 70.5791 46.8797C70.5813 47.0761 70.5434 47.2594 70.4699 47.4293ZM75.6516 47.4293C75.5781 47.5993 75.4778 47.745 75.3508 47.8686C75.2237 47.9922 75.0744 48.0872 74.9028 48.1556C74.7312 48.224 74.5462 48.2571 74.3456 48.2571C74.1495 48.2571 73.969 48.2196 73.8018 48.149C73.6347 48.0761 73.4898 47.9768 73.3672 47.851C73.2446 47.7251 73.1488 47.5794 73.0797 47.4117C73.0106 47.2439 72.975 47.0651 72.975 46.8775C72.975 46.6876 73.0106 46.5088 73.0797 46.3388C73.1488 46.1688 73.2424 46.0231 73.3627 45.8973C73.4831 45.7715 73.6257 45.6722 73.7929 45.5971C73.96 45.522 74.1428 45.4845 74.3434 45.4845C74.5484 45.4845 74.7356 45.5198 74.9073 45.5905C75.0789 45.6611 75.2282 45.7583 75.3552 45.8819C75.4823 46.0055 75.5803 46.1512 75.6516 46.3212C75.723 46.4911 75.7586 46.6766 75.7586 46.8797C75.7631 47.0761 75.7252 47.2594 75.6516 47.4293Z" fill="#AFACAD"/>
<path d="M1.36398 48.085C1.63143 48.1556 1.91224 48.1909 2.20421 48.1909H5.7033V44.606H5.16841V47.6611H3.04444V44.606H2.20198C1.86767 44.606 1.56679 44.6501 1.29489 44.7406C1.02298 44.8311 0.791197 44.957 0.599527 45.1159C0.407857 45.277 0.26076 45.4669 0.15601 45.6876C0.0512599 45.9084 0 46.1446 0 46.4007C0 46.7141 0.060175 46.9812 0.180526 47.2064C0.300877 47.4316 0.461346 47.6148 0.661931 47.7605C0.862516 47.9084 1.09653 48.0166 1.36398 48.085ZM0.534894 46.4029C0.534894 46.213 0.577239 46.0408 0.659702 45.8841C0.742164 45.7274 0.851372 45.5949 0.987324 45.4823C1.12328 45.3698 1.27706 45.2837 1.4509 45.2241C1.62474 45.1645 1.80304 45.1358 1.98579 45.1358H2.514V47.6634H1.98579C1.78521 47.6634 1.59799 47.6347 1.42192 47.5773C1.24586 47.5199 1.09207 47.4382 0.960579 47.33C0.829084 47.2219 0.726563 47.0894 0.650787 46.9349C0.572781 46.7781 0.534894 46.6015 0.534894 46.4029Z" fill="#AFACAD"/>
<path d="M39.2923 48.8179H38.744V49.3609H39.2923V48.8179Z" fill="#AFACAD"/>
<path d="M38.3563 48.8179H37.808V49.3609H38.3563V48.8179Z" fill="#AFACAD"/>
<path d="M43.3175 48.862C43.3509 48.6964 43.3688 48.511 43.3688 48.3035V48.1909H50.2399V43.4536H49.705V47.6633H47.434L48.3678 45.4514C48.2251 45.3278 48.0736 45.213 47.9131 45.1048C47.7527 44.9967 47.5877 44.9017 47.4183 44.8201C47.249 44.7384 47.0774 44.6744 46.9035 44.628C46.7297 44.5817 46.5581 44.5596 46.3887 44.5596C46.2148 44.5596 46.041 44.5839 45.8672 44.628C45.6933 44.6744 45.5217 44.7362 45.3501 44.8156C45.1785 44.8951 45.0136 44.99 44.8553 45.1004C44.6971 45.2108 44.55 45.3256 44.4118 45.4492L45.3523 47.6611H43.3621V44.6059H42.8272V48.3035C42.8272 48.4536 42.8205 48.5794 42.8049 48.6832C42.7893 48.787 42.7625 48.8708 42.7247 48.9349C42.6868 48.9989 42.6355 49.0452 42.5709 49.0739C42.5062 49.1026 42.4238 49.1181 42.3213 49.1181C42.2722 49.1181 42.2299 49.1159 42.1942 49.1115C42.1586 49.107 42.1095 49.096 42.0471 49.0783L41.9067 49.5861C42.0538 49.6258 42.1987 49.6457 42.3413 49.6457C42.533 49.6457 42.6935 49.6148 42.825 49.553C42.9565 49.4911 43.0612 49.4028 43.1414 49.2858C43.2284 49.1688 43.2841 49.0276 43.3175 48.862ZM45.0849 45.6368C45.2899 45.4647 45.4994 45.3388 45.7156 45.2616C45.9318 45.1821 46.1569 45.1424 46.3931 45.1424C46.6338 45.1424 46.8723 45.1887 47.1086 45.2836C47.3448 45.3786 47.5454 45.4956 47.7103 45.6368L46.8768 47.6633H45.9229L45.0849 45.6368Z" fill="#AFACAD"/>
<path d="M2.10838 43.4536H1.56011V43.9967H2.10838V43.4536Z" fill="#AFACAD"/>
<path d="M3.83324 51.6611H3.01084L1.19443 53.5596V51.6611H0.523582V55.4338H1.19443V54.341L1.7895 53.7362L3.09107 55.4338H3.90456L2.24639 53.2837L3.83324 51.6611Z" fill="#AFACAD"/>
<path d="M5.18627 51.6611H4.51542V55.4338H5.18627V51.6611Z" fill="#AFACAD"/>
<path d="M8.88375 54.2704L6.84002 51.6611H6.2182V55.4338H6.8779V52.7494L8.98182 55.4338H9.54346V51.6611H8.88375V54.2704Z" fill="#AFACAD"/>
<path d="M12.3204 53.904H13.2965V54.6103C13.0625 54.7825 12.7349 54.8951 12.3761 54.8951C11.596 54.8951 11.079 54.3234 11.079 53.5485V53.5375C11.079 52.8157 11.6116 52.2064 12.3159 52.2064C12.8018 52.2064 13.0893 52.3631 13.3835 52.6104L13.8091 52.1092C13.4169 51.7803 13.0068 51.5971 12.3426 51.5971C11.1926 51.5971 10.3747 52.4911 10.3747 53.5485V53.5596C10.3747 54.6589 11.1592 55.5 12.3538 55.5C13.0291 55.5 13.5707 55.2307 13.9451 54.9128V53.3278H12.3204V53.904Z" fill="#AFACAD"/>
<path d="M16.292 51.6611H14.8701V55.4338H16.292C17.491 55.4338 18.3201 54.6104 18.3201 53.5463V53.5353C18.3201 52.4757 17.491 51.6611 16.292 51.6611ZM17.6181 53.5596C17.6181 54.2969 17.0943 54.8311 16.2942 54.8311H15.5431V52.266H16.2942C17.0965 52.266 17.6181 52.8112 17.6181 53.5485V53.5596Z" fill="#AFACAD"/>
<path d="M20.95 51.5971C19.7777 51.5971 18.9509 52.4867 18.9509 53.5485V53.5596C18.9509 54.6214 19.7688 55.5 20.9411 55.5C22.1134 55.5 22.9425 54.6103 22.9425 53.5485V53.5375C22.938 52.4757 22.1201 51.5971 20.95 51.5971ZM22.236 53.5596C22.236 54.2925 21.7078 54.8907 20.95 54.8907C20.1923 54.8907 19.6529 54.2814 19.6529 53.5485V53.5375C19.6529 52.8046 20.1811 52.2064 20.9389 52.2064C21.6966 52.2064 22.236 52.8156 22.236 53.5485V53.5596Z" fill="#AFACAD"/>
<path d="M25.646 53.4448L24.4848 51.6611H23.7716V55.4338H24.4313V52.7406L25.6259 54.5066H25.646L26.8517 52.7296V55.4338H27.5225V51.6611H26.8071L25.646 53.4448Z" fill="#AFACAD"/>
<path d="M31.9711 51.5971C30.7988 51.5971 29.972 52.4867 29.972 53.5485V53.5596C29.972 54.6214 30.7899 55.5 31.9622 55.5C33.1345 55.5 33.9636 54.6103 33.9636 53.5485V53.5375C33.9614 52.4757 33.1434 51.5971 31.9711 51.5971ZM33.2571 53.5596C33.2571 54.2925 32.7289 54.8907 31.9711 54.8907C31.2134 54.8907 30.674 54.2814 30.674 53.5485V53.5375C30.674 52.8046 31.2022 52.2064 31.96 52.2064C32.7178 52.2064 33.2571 52.8156 33.2571 53.5485V53.5596Z" fill="#AFACAD"/>
<path d="M34.7948 55.4338H35.4657V53.8973H37.3891V53.2947H35.4657V52.266H37.6342V51.6611H34.7948V55.4338Z" fill="#AFACAD"/>
<path d="M41.4787 53.2461C40.7477 53.0739 40.5738 52.9437 40.5738 52.6545V52.6435C40.5738 52.3962 40.8034 52.1954 41.1956 52.1954C41.5455 52.1954 41.8888 52.33 42.232 52.5839L42.5908 52.0828C42.203 51.7759 41.7617 51.6082 41.2068 51.6082C40.449 51.6082 39.903 52.0563 39.903 52.7009V52.7119C39.903 53.4073 40.3621 53.6435 41.1733 53.8377C41.8821 53.9989 42.0336 54.1446 42.0336 54.4139V54.4271C42.0336 54.7141 41.7729 54.9017 41.3583 54.9017C40.8836 54.9017 40.5181 54.7229 40.1526 54.4117L39.7492 54.8863C40.2083 55.2903 40.7566 55.4889 41.3405 55.4889C42.1428 55.4889 42.7023 55.0695 42.7023 54.3631V54.3521C42.7045 53.7251 42.2855 53.4404 41.4787 53.2461Z" fill="#AFACAD"/>
<path d="M44.7594 51.6346L43.0812 55.4338H43.7676L44.1599 54.5221H45.9652L46.353 55.4338H47.0617L45.3835 51.6346H44.7594ZM44.4051 53.9371L45.0603 52.4271L45.72 53.9371H44.4051Z" fill="#AFACAD"/>
<path d="M50.0482 53.8333C50.0482 54.5287 49.6827 54.8841 49.0876 54.8841C48.4881 54.8841 48.1226 54.5066 48.1226 53.8068V51.6611H47.4517V53.8333C47.4517 54.926 48.0847 55.4934 49.0764 55.4934C50.0749 55.4934 50.7168 54.9282 50.7168 53.8024V51.6633H50.0459V53.8333H50.0482Z" fill="#AFACAD"/>
<path d="M53.1239 51.6611H51.702V55.4338H53.1239C54.323 55.4338 55.1521 54.6104 55.1521 53.5463V53.5353C55.1521 52.4757 54.323 51.6611 53.1239 51.6611ZM54.4478 53.5596C54.4478 54.2969 53.924 54.8311 53.1239 54.8311H52.3729V52.266H53.1239C53.9263 52.266 54.4478 52.8112 54.4478 53.5485V53.5596Z" fill="#AFACAD"/>
<path d="M56.6718 51.6611H56.001V55.4338H56.6718V51.6611Z" fill="#AFACAD"/>
<path d="M60.677 51.6346L58.9987 55.4338H59.6852L60.0774 54.5221H61.8827L62.2705 55.4338H62.9792L61.301 51.6346H60.677ZM60.3226 53.9371L60.9778 52.4271L61.6375 53.9371H60.3226Z" fill="#AFACAD"/>
<path d="M66.7302 52.8642V52.8532C66.7302 52.5243 66.6165 52.2439 66.4137 52.0386C66.1685 51.8024 65.7919 51.6611 65.3127 51.6611H63.6122V55.4338H64.283V54.1181H65.1121H65.1233L66.0616 55.4338H66.8528L65.8231 54.0055C66.3535 53.8554 66.7302 53.4823 66.7302 52.8642ZM64.283 53.5309V52.2638H65.2592C65.7562 52.2638 66.0504 52.4845 66.0504 52.8885V52.8995C66.0504 53.2814 65.7451 53.5309 65.2659 53.5309H64.283Z" fill="#AFACAD"/>
<path d="M69.0213 51.6346L67.343 55.4338H68.0295L68.4217 54.5221H70.227L70.6148 55.4338H71.3235L69.6453 51.6346H69.0213ZM68.6669 53.9371L69.3221 52.4271L69.9818 53.9371H68.6669Z" fill="#AFACAD"/>
<path d="M74.3746 53.4735C74.6576 53.3278 74.9206 53.085 74.9206 52.6324V52.6214C74.9206 52.3675 74.8337 52.1644 74.6643 51.9967C74.4459 51.7803 74.1027 51.6633 73.6658 51.6633H71.9542V55.436H73.7193C74.5707 55.436 75.1301 55.0761 75.1301 54.4006V54.3896C75.1323 53.8775 74.8226 53.6236 74.3746 53.4735ZM72.6139 52.2483H73.5789C74.0091 52.2483 74.2498 52.4315 74.2498 52.7273V52.7384C74.2498 53.0828 73.96 53.2505 73.5299 53.2505H72.6139V52.2483ZM74.4615 54.33C74.4615 54.6699 74.1829 54.8465 73.726 54.8465H72.6139V53.8112H73.677C74.2052 53.8112 74.4615 54.0011 74.4615 54.319V54.33Z" fill="#AFACAD"/>
<path d="M76.6346 51.6611H75.9638V55.4338H76.6346V51.6611Z" fill="#AFACAD"/>
<path d="M79.5743 51.6346H78.9525L77.2742 55.4338H77.9607L78.3529 54.5221H80.1582L80.546 55.4338H81.2547L79.5743 51.6346ZM78.5981 53.9371L79.2533 52.4271L79.9131 53.9371H78.5981Z" fill="#AFACAD"/>
</svg>
